<mxfile host="Electron" modified="2024-02-03T16:22:19.194Z" agent="Mozilla/5.0 (Windows NT 10.0; Win64; x64) AppleWebKit/537.36 (KHTML, like Gecko) draw.io/22.0.2 Chrome/114.0.5735.289 Electron/25.8.4 Safari/537.36" etag="Eo-yGraskzd_c5yaXAam" version="22.0.2" type="device">
  <diagram name="Page-1" id="FcjTnN1osP1dsOTYfN1-">
    <mxGraphModel dx="1105" dy="654" grid="1" gridSize="10" guides="1" tooltips="1" connect="1" arrows="1" fold="1" page="1" pageScale="1" pageWidth="827" pageHeight="1169" math="0" shadow="0">
      <root>
        <mxCell id="0" />
        <mxCell id="1" parent="0" />
        <mxCell id="n3yEZyMTPkoygYLhiBQ4-2" value="" style="sketch=0;outlineConnect=0;fontColor=#232F3E;gradientColor=none;fillColor=#FF3333;strokeColor=none;dashed=0;verticalLabelPosition=bottom;verticalAlign=top;align=center;html=1;fontSize=12;fontStyle=0;aspect=fixed;pointerEvents=1;shape=mxgraph.aws4.certificate_manager;" vertex="1" parent="1">
          <mxGeometry x="90" y="67" width="40" height="52.88" as="geometry" />
        </mxCell>
        <mxCell id="n3yEZyMTPkoygYLhiBQ4-3" value="" style="sketch=0;outlineConnect=0;fontColor=#232F3E;gradientColor=none;fillColor=#7AA116;strokeColor=none;dashed=0;verticalLabelPosition=bottom;verticalAlign=top;align=center;html=1;fontSize=12;fontStyle=0;aspect=fixed;pointerEvents=1;shape=mxgraph.aws4.generic;" vertex="1" parent="1">
          <mxGeometry x="160" y="80" width="40" height="40" as="geometry" />
        </mxCell>
        <mxCell id="n3yEZyMTPkoygYLhiBQ4-4" value="" style="sketch=0;outlineConnect=0;fontColor=#232F3E;gradientColor=none;fillColor=#FF3333;strokeColor=none;dashed=0;verticalLabelPosition=bottom;verticalAlign=top;align=center;html=1;fontSize=12;fontStyle=0;aspect=fixed;pointerEvents=1;shape=mxgraph.aws4.addon;" vertex="1" parent="1">
          <mxGeometry x="40" y="99.49" width="40" height="20.51" as="geometry" />
        </mxCell>
        <mxCell id="n3yEZyMTPkoygYLhiBQ4-5" value="" style="sketch=0;outlineConnect=0;fontColor=#232F3E;gradientColor=none;fillColor=#7AA116;strokeColor=none;dashed=0;verticalLabelPosition=bottom;verticalAlign=top;align=center;html=1;fontSize=12;fontStyle=0;aspect=fixed;pointerEvents=1;shape=mxgraph.aws4.policy;" vertex="1" parent="1">
          <mxGeometry x="725" y="80" width="46.57" height="40" as="geometry" />
        </mxCell>
        <mxCell id="n3yEZyMTPkoygYLhiBQ4-6" value="" style="sketch=0;outlineConnect=0;fontColor=#232F3E;gradientColor=none;fillColor=#FF3333;strokeColor=none;dashed=0;verticalLabelPosition=bottom;verticalAlign=top;align=center;html=1;fontSize=12;fontStyle=0;aspect=fixed;pointerEvents=1;shape=mxgraph.aws4.certificate_manager;" vertex="1" parent="1">
          <mxGeometry x="670" y="67" width="40" height="52.88" as="geometry" />
        </mxCell>
        <mxCell id="n3yEZyMTPkoygYLhiBQ4-7" value="" style="sketch=0;points=[[0,0,0],[0.25,0,0],[0.5,0,0],[0.75,0,0],[1,0,0],[0,1,0],[0.25,1,0],[0.5,1,0],[0.75,1,0],[1,1,0],[0,0.25,0],[0,0.5,0],[0,0.75,0],[1,0.25,0],[1,0.5,0],[1,0.75,0]];outlineConnect=0;fontColor=#232F3E;fillColor=#ED7100;strokeColor=#ffffff;dashed=0;verticalLabelPosition=bottom;verticalAlign=top;align=center;html=1;fontSize=12;fontStyle=0;aspect=fixed;shape=mxgraph.aws4.resourceIcon;resIcon=mxgraph.aws4.lambda;" vertex="1" parent="1">
          <mxGeometry x="600" y="80" width="40" height="40" as="geometry" />
        </mxCell>
        <mxCell id="n3yEZyMTPkoygYLhiBQ4-8" value="" style="sketch=0;points=[[0,0,0],[0.25,0,0],[0.5,0,0],[0.75,0,0],[1,0,0],[0,1,0],[0.25,1,0],[0.5,1,0],[0.75,1,0],[1,1,0],[0,0.25,0],[0,0.5,0],[0,0.75,0],[1,0.25,0],[1,0.5,0],[1,0.75,0]];outlineConnect=0;fontColor=#232F3E;fillColor=#E7157B;strokeColor=#ffffff;dashed=0;verticalLabelPosition=bottom;verticalAlign=top;align=center;html=1;fontSize=12;fontStyle=0;aspect=fixed;shape=mxgraph.aws4.resourceIcon;resIcon=mxgraph.aws4.sns;" vertex="1" parent="1">
          <mxGeometry x="520" y="80" width="40" height="40" as="geometry" />
        </mxCell>
        <mxCell id="n3yEZyMTPkoygYLhiBQ4-9" value="" style="sketch=0;outlineConnect=0;fontColor=#232F3E;gradientColor=none;fillColor=#7AA116;strokeColor=none;dashed=0;verticalLabelPosition=bottom;verticalAlign=top;align=center;html=1;fontSize=12;fontStyle=0;aspect=fixed;pointerEvents=1;shape=mxgraph.aws4.rule;" vertex="1" parent="1">
          <mxGeometry x="440" y="52" width="40" height="67.83" as="geometry" />
        </mxCell>
        <mxCell id="n3yEZyMTPkoygYLhiBQ4-11" value="" style="sketch=0;points=[[0,0,0],[0.25,0,0],[0.5,0,0],[0.75,0,0],[1,0,0],[0,1,0],[0.25,1,0],[0.5,1,0],[0.75,1,0],[1,1,0],[0,0.25,0],[0,0.5,0],[0,0.75,0],[1,0.25,0],[1,0.5,0],[1,0.75,0]];outlineConnect=0;fontColor=#232F3E;fillColor=#7AA116;strokeColor=#ffffff;dashed=0;verticalLabelPosition=bottom;verticalAlign=top;align=center;html=1;fontSize=12;fontStyle=0;aspect=fixed;shape=mxgraph.aws4.resourceIcon;resIcon=mxgraph.aws4.iot_device_defender;" vertex="1" parent="1">
          <mxGeometry x="360" y="80" width="40" height="40" as="geometry" />
        </mxCell>
        <mxCell id="n3yEZyMTPkoygYLhiBQ4-12" value="" style="sketch=0;points=[[0,0,0],[0.25,0,0],[0.5,0,0],[0.75,0,0],[1,0,0],[0,1,0],[0.25,1,0],[0.5,1,0],[0.75,1,0],[1,1,0],[0,0.25,0],[0,0.5,0],[0,0.75,0],[1,0.25,0],[1,0.5,0],[1,0.75,0]];outlineConnect=0;fontColor=#232F3E;fillColor=#7AA116;strokeColor=#ffffff;dashed=0;verticalLabelPosition=bottom;verticalAlign=top;align=center;html=1;fontSize=12;fontStyle=0;aspect=fixed;shape=mxgraph.aws4.resourceIcon;resIcon=mxgraph.aws4.iot_core;" vertex="1" parent="1">
          <mxGeometry x="280" y="80" width="40" height="40" as="geometry" />
        </mxCell>
        <mxCell id="n3yEZyMTPkoygYLhiBQ4-13" value="" style="sketch=0;outlineConnect=0;fontColor=#232F3E;gradientColor=none;fillColor=#7AA116;strokeColor=none;dashed=0;verticalLabelPosition=bottom;verticalAlign=top;align=center;html=1;fontSize=12;fontStyle=0;aspect=fixed;pointerEvents=1;shape=mxgraph.aws4.addon;" vertex="1" parent="1">
          <mxGeometry x="210" y="420.49" width="40" height="20.51" as="geometry" />
        </mxCell>
        <mxCell id="n3yEZyMTPkoygYLhiBQ4-14" value="" style="sketch=0;outlineConnect=0;fontColor=#232F3E;gradientColor=none;fillColor=#DD344C;strokeColor=none;dashed=0;verticalLabelPosition=bottom;verticalAlign=top;align=center;html=1;fontSize=12;fontStyle=0;aspect=fixed;pointerEvents=1;shape=mxgraph.aws4.certificate_manager_2;" vertex="1" parent="1">
          <mxGeometry x="230" y="471.04" width="40" height="36.93" as="geometry" />
        </mxCell>
        <mxCell id="n3yEZyMTPkoygYLhiBQ4-15" value="" style="sketch=0;outlineConnect=0;fontColor=#232F3E;gradientColor=none;fillColor=#7AA116;strokeColor=none;dashed=0;verticalLabelPosition=bottom;verticalAlign=top;align=center;html=1;fontSize=12;fontStyle=0;aspect=fixed;pointerEvents=1;shape=mxgraph.aws4.certificate_manager;" vertex="1" parent="1">
          <mxGeometry x="250" y="790" width="40" height="52.88" as="geometry" />
        </mxCell>
        <mxCell id="n3yEZyMTPkoygYLhiBQ4-16" value="" style="rounded=0;whiteSpace=wrap;html=1;fillColor=none;strokeColor=#AD105C;strokeWidth=0.5;" vertex="1" parent="1">
          <mxGeometry x="55" y="140" width="10" height="750" as="geometry" />
        </mxCell>
        <mxCell id="n3yEZyMTPkoygYLhiBQ4-17" value="" style="rounded=0;whiteSpace=wrap;html=1;fillColor=none;strokeColor=#AD105C;strokeWidth=0.5;" vertex="1" parent="1">
          <mxGeometry x="105" y="140" width="10" height="800" as="geometry" />
        </mxCell>
        <mxCell id="n3yEZyMTPkoygYLhiBQ4-18" value="" style="rounded=0;whiteSpace=wrap;html=1;fillColor=none;strokeColor=#AD105C;strokeWidth=0.5;" vertex="1" parent="1">
          <mxGeometry x="175" y="180" width="10" height="950" as="geometry" />
        </mxCell>
        <mxCell id="n3yEZyMTPkoygYLhiBQ4-19" value="" style="endArrow=none;html=1;rounded=0;strokeColor=#AD105C;exitX=0.5;exitY=0;exitDx=0;exitDy=0;dashed=1;" edge="1" parent="1" source="n3yEZyMTPkoygYLhiBQ4-16">
          <mxGeometry width="50" height="50" relative="1" as="geometry">
            <mxPoint x="60" y="137.5" as="sourcePoint" />
            <mxPoint x="60" y="130" as="targetPoint" />
          </mxGeometry>
        </mxCell>
        <mxCell id="n3yEZyMTPkoygYLhiBQ4-20" value="" style="endArrow=none;html=1;rounded=0;strokeColor=#AD105C;exitX=0.5;exitY=0;exitDx=0;exitDy=0;dashed=1;" edge="1" parent="1" source="n3yEZyMTPkoygYLhiBQ4-17">
          <mxGeometry width="50" height="50" relative="1" as="geometry">
            <mxPoint x="109.94" y="137.5" as="sourcePoint" />
            <mxPoint x="109.94" y="130" as="targetPoint" />
          </mxGeometry>
        </mxCell>
        <mxCell id="n3yEZyMTPkoygYLhiBQ4-21" value="" style="endArrow=none;html=1;rounded=0;strokeColor=#AD105C;dashed=1;exitX=0.5;exitY=0;exitDx=0;exitDy=0;" edge="1" parent="1" source="n3yEZyMTPkoygYLhiBQ4-18">
          <mxGeometry width="50" height="50" relative="1" as="geometry">
            <mxPoint x="179.93" y="137.5" as="sourcePoint" />
            <mxPoint x="179.93" y="130" as="targetPoint" />
          </mxGeometry>
        </mxCell>
        <mxCell id="n3yEZyMTPkoygYLhiBQ4-22" value="" style="endArrow=classic;html=1;rounded=0;strokeColor=#AD105C;" edge="1" parent="1">
          <mxGeometry width="50" height="50" relative="1" as="geometry">
            <mxPoint x="300" y="140" as="sourcePoint" />
            <mxPoint x="685" y="140" as="targetPoint" />
          </mxGeometry>
        </mxCell>
        <mxCell id="n3yEZyMTPkoygYLhiBQ4-23" value="" style="endArrow=none;html=1;rounded=0;strokeColor=#AD105C;dashed=1;" edge="1" parent="1">
          <mxGeometry width="50" height="50" relative="1" as="geometry">
            <mxPoint x="300" y="1120" as="sourcePoint" />
            <mxPoint x="299.84000000000003" y="130" as="targetPoint" />
          </mxGeometry>
        </mxCell>
        <mxCell id="n3yEZyMTPkoygYLhiBQ4-24" value="" style="endArrow=none;html=1;rounded=0;strokeColor=#AD105C;dashed=1;" edge="1" parent="1">
          <mxGeometry width="50" height="50" relative="1" as="geometry">
            <mxPoint x="380" y="1130" as="sourcePoint" />
            <mxPoint x="379.62" y="130" as="targetPoint" />
          </mxGeometry>
        </mxCell>
        <mxCell id="n3yEZyMTPkoygYLhiBQ4-25" value="" style="endArrow=none;html=1;rounded=0;strokeColor=#AD105C;dashed=1;" edge="1" parent="1" source="n3yEZyMTPkoygYLhiBQ4-32">
          <mxGeometry width="50" height="50" relative="1" as="geometry">
            <mxPoint x="459.96999999999997" y="1120" as="sourcePoint" />
            <mxPoint x="459.81" y="130" as="targetPoint" />
          </mxGeometry>
        </mxCell>
        <mxCell id="n3yEZyMTPkoygYLhiBQ4-26" value="" style="endArrow=none;html=1;rounded=0;strokeColor=#AD105C;dashed=1;" edge="1" parent="1" source="n3yEZyMTPkoygYLhiBQ4-55">
          <mxGeometry width="50" height="50" relative="1" as="geometry">
            <mxPoint x="539.97" y="1120" as="sourcePoint" />
            <mxPoint x="539.81" y="130" as="targetPoint" />
          </mxGeometry>
        </mxCell>
        <mxCell id="n3yEZyMTPkoygYLhiBQ4-27" value="" style="endArrow=none;html=1;rounded=0;strokeColor=#AD105C;dashed=1;" edge="1" parent="1" source="n3yEZyMTPkoygYLhiBQ4-60">
          <mxGeometry width="50" height="50" relative="1" as="geometry">
            <mxPoint x="619.97" y="1120" as="sourcePoint" />
            <mxPoint x="619.81" y="130" as="targetPoint" />
          </mxGeometry>
        </mxCell>
        <mxCell id="n3yEZyMTPkoygYLhiBQ4-28" value="" style="sketch=0;outlineConnect=0;fontColor=#232F3E;gradientColor=none;fillColor=#7AA116;strokeColor=none;dashed=0;verticalLabelPosition=bottom;verticalAlign=top;align=center;html=1;fontSize=12;fontStyle=0;aspect=fixed;pointerEvents=1;shape=mxgraph.aws4.certificate_manager;" vertex="1" parent="1">
          <mxGeometry x="640" y="623.5600000000001" width="40" height="52.88" as="geometry" />
        </mxCell>
        <mxCell id="n3yEZyMTPkoygYLhiBQ4-29" value="" style="endArrow=none;html=1;rounded=0;strokeColor=#AD105C;dashed=1;" edge="1" parent="1" source="n3yEZyMTPkoygYLhiBQ4-73">
          <mxGeometry width="50" height="50" relative="1" as="geometry">
            <mxPoint x="689.76" y="1120" as="sourcePoint" />
            <mxPoint x="689.5999999999999" y="130" as="targetPoint" />
          </mxGeometry>
        </mxCell>
        <mxCell id="n3yEZyMTPkoygYLhiBQ4-30" value="" style="endArrow=none;html=1;rounded=0;strokeColor=#AD105C;dashed=1;" edge="1" parent="1">
          <mxGeometry width="50" height="50" relative="1" as="geometry">
            <mxPoint x="750" y="1120" as="sourcePoint" />
            <mxPoint x="750" y="129.83" as="targetPoint" />
          </mxGeometry>
        </mxCell>
        <mxCell id="n3yEZyMTPkoygYLhiBQ4-31" value="" style="rounded=0;whiteSpace=wrap;html=1;fillColor=default;strokeColor=#AD105C;strokeWidth=0.5;" vertex="1" parent="1">
          <mxGeometry x="295" y="200" width="10" height="930" as="geometry" />
        </mxCell>
        <mxCell id="n3yEZyMTPkoygYLhiBQ4-33" value="" style="endArrow=none;html=1;rounded=0;strokeColor=#AD105C;dashed=1;" edge="1" parent="1" target="n3yEZyMTPkoygYLhiBQ4-32">
          <mxGeometry width="50" height="50" relative="1" as="geometry">
            <mxPoint x="459.96999999999997" y="1120" as="sourcePoint" />
            <mxPoint x="459.81" y="130" as="targetPoint" />
          </mxGeometry>
        </mxCell>
        <mxCell id="n3yEZyMTPkoygYLhiBQ4-32" value="" style="rounded=0;whiteSpace=wrap;html=1;fillColor=default;strokeColor=#AD105C;strokeWidth=0.5;" vertex="1" parent="1">
          <mxGeometry x="455" y="140" width="10" height="990" as="geometry" />
        </mxCell>
        <mxCell id="n3yEZyMTPkoygYLhiBQ4-34" value="IoT Core" style="text;html=1;strokeColor=none;fillColor=none;align=center;verticalAlign=middle;whiteSpace=wrap;rounded=0;" vertex="1" parent="1">
          <mxGeometry x="270" y="120" width="60" height="10" as="geometry" />
        </mxCell>
        <mxCell id="n3yEZyMTPkoygYLhiBQ4-35" value="Device Defender" style="text;html=1;strokeColor=none;fillColor=none;align=center;verticalAlign=middle;whiteSpace=wrap;rounded=0;" vertex="1" parent="1">
          <mxGeometry x="330" y="119.83" width="100" height="10" as="geometry" />
        </mxCell>
        <mxCell id="n3yEZyMTPkoygYLhiBQ4-36" value="Rules" style="text;html=1;strokeColor=none;fillColor=none;align=center;verticalAlign=middle;whiteSpace=wrap;rounded=0;" vertex="1" parent="1">
          <mxGeometry x="430" y="120" width="60" height="10" as="geometry" />
        </mxCell>
        <mxCell id="n3yEZyMTPkoygYLhiBQ4-37" value="SNS" style="text;html=1;strokeColor=none;fillColor=none;align=center;verticalAlign=middle;whiteSpace=wrap;rounded=0;" vertex="1" parent="1">
          <mxGeometry x="510" y="119.83" width="60" height="10" as="geometry" />
        </mxCell>
        <mxCell id="n3yEZyMTPkoygYLhiBQ4-38" value="Lambda" style="text;html=1;strokeColor=none;fillColor=none;align=center;verticalAlign=middle;whiteSpace=wrap;rounded=0;" vertex="1" parent="1">
          <mxGeometry x="590" y="119.99999999999999" width="60" height="10" as="geometry" />
        </mxCell>
        <mxCell id="n3yEZyMTPkoygYLhiBQ4-39" value="Cert expiring" style="text;html=1;strokeColor=none;fillColor=none;align=center;verticalAlign=middle;whiteSpace=wrap;rounded=0;" vertex="1" parent="1">
          <mxGeometry x="650" y="120" width="75" height="10" as="geometry" />
        </mxCell>
        <mxCell id="n3yEZyMTPkoygYLhiBQ4-40" value="IoT Policy" style="text;html=1;strokeColor=none;fillColor=none;align=center;verticalAlign=middle;whiteSpace=wrap;rounded=0;" vertex="1" parent="1">
          <mxGeometry x="720" y="119.83" width="70" height="10" as="geometry" />
        </mxCell>
        <mxCell id="n3yEZyMTPkoygYLhiBQ4-42" value="Cert expiring" style="text;html=1;strokeColor=none;fillColor=none;align=center;verticalAlign=middle;whiteSpace=wrap;rounded=0;" vertex="1" parent="1">
          <mxGeometry x="83" y="120" width="80" height="10" as="geometry" />
        </mxCell>
        <mxCell id="n3yEZyMTPkoygYLhiBQ4-43" value="IoT device" style="text;html=1;strokeColor=none;fillColor=none;align=center;verticalAlign=middle;whiteSpace=wrap;rounded=0;" vertex="1" parent="1">
          <mxGeometry x="160" y="119.83" width="60" height="10" as="geometry" />
        </mxCell>
        <mxCell id="n3yEZyMTPkoygYLhiBQ4-44" value="Private key" style="text;html=1;strokeColor=none;fillColor=none;align=center;verticalAlign=middle;whiteSpace=wrap;rounded=0;" vertex="1" parent="1">
          <mxGeometry x="20" y="119.99999999999999" width="70" height="10" as="geometry" />
        </mxCell>
        <mxCell id="n3yEZyMTPkoygYLhiBQ4-45" value="" style="endArrow=classic;html=1;rounded=0;strokeColor=#AD105C;" edge="1" parent="1">
          <mxGeometry width="50" height="50" relative="1" as="geometry">
            <mxPoint x="690" y="150" as="sourcePoint" />
            <mxPoint x="745" y="150" as="targetPoint" />
          </mxGeometry>
        </mxCell>
        <mxCell id="n3yEZyMTPkoygYLhiBQ4-46" value="" style="endArrow=classic;html=1;rounded=0;strokeColor=#AD105C;" edge="1" parent="1">
          <mxGeometry width="50" height="50" relative="1" as="geometry">
            <mxPoint x="65" y="170" as="sourcePoint" />
            <mxPoint x="180" y="170" as="targetPoint" />
          </mxGeometry>
        </mxCell>
        <mxCell id="n3yEZyMTPkoygYLhiBQ4-47" value="" style="endArrow=classic;html=1;rounded=0;strokeColor=#AD105C;" edge="1" parent="1">
          <mxGeometry width="50" height="50" relative="1" as="geometry">
            <mxPoint x="115" y="180" as="sourcePoint" />
            <mxPoint x="175" y="180" as="targetPoint" />
          </mxGeometry>
        </mxCell>
        <mxCell id="n3yEZyMTPkoygYLhiBQ4-48" value="" style="endArrow=classic;html=1;rounded=0;strokeColor=#AD105C;" edge="1" parent="1">
          <mxGeometry width="50" height="50" relative="1" as="geometry">
            <mxPoint x="185" y="200" as="sourcePoint" />
            <mxPoint x="295" y="200" as="targetPoint" />
          </mxGeometry>
        </mxCell>
        <mxCell id="n3yEZyMTPkoygYLhiBQ4-49" value="MQTT Session" style="text;html=1;strokeColor=none;fillColor=none;align=center;verticalAlign=middle;whiteSpace=wrap;rounded=0;fontSize=10;" vertex="1" parent="1">
          <mxGeometry x="190" y="188" width="90" height="11" as="geometry" />
        </mxCell>
        <mxCell id="n3yEZyMTPkoygYLhiBQ4-50" value="" style="rounded=0;whiteSpace=wrap;html=1;fillColor=default;strokeColor=#AD105C;strokeWidth=0.5;" vertex="1" parent="1">
          <mxGeometry x="375" y="200" width="10" height="110" as="geometry" />
        </mxCell>
        <mxCell id="n3yEZyMTPkoygYLhiBQ4-51" value="" style="endArrow=classic;html=1;rounded=0;strokeColor=#AD105C;" edge="1" parent="1">
          <mxGeometry width="50" height="50" relative="1" as="geometry">
            <mxPoint x="385" y="210" as="sourcePoint" />
            <mxPoint x="385" y="220" as="targetPoint" />
            <Array as="points">
              <mxPoint x="410" y="210" />
              <mxPoint x="410" y="220" />
            </Array>
          </mxGeometry>
        </mxCell>
        <mxCell id="n3yEZyMTPkoygYLhiBQ4-52" value="Scheduled Audit Exection" style="text;html=1;strokeColor=none;fillColor=none;align=center;verticalAlign=middle;whiteSpace=wrap;rounded=0;fontSize=10;" vertex="1" parent="1">
          <mxGeometry x="385" y="170" width="65" height="40" as="geometry" />
        </mxCell>
        <mxCell id="n3yEZyMTPkoygYLhiBQ4-53" value="" style="endArrow=classic;html=1;rounded=0;strokeColor=#AD105C;" edge="1" parent="1">
          <mxGeometry width="50" height="50" relative="1" as="geometry">
            <mxPoint x="385" y="240" as="sourcePoint" />
            <mxPoint x="535" y="240" as="targetPoint" />
          </mxGeometry>
        </mxCell>
        <mxCell id="n3yEZyMTPkoygYLhiBQ4-54" value="Audit SNS alert" style="text;html=1;strokeColor=none;fillColor=none;align=center;verticalAlign=middle;whiteSpace=wrap;rounded=0;fontSize=10;" vertex="1" parent="1">
          <mxGeometry x="375" y="228" width="90" height="11" as="geometry" />
        </mxCell>
        <mxCell id="n3yEZyMTPkoygYLhiBQ4-56" value="" style="endArrow=none;html=1;rounded=0;strokeColor=#AD105C;dashed=1;" edge="1" parent="1" target="n3yEZyMTPkoygYLhiBQ4-55">
          <mxGeometry width="50" height="50" relative="1" as="geometry">
            <mxPoint x="540" y="1130" as="sourcePoint" />
            <mxPoint x="539.81" y="130" as="targetPoint" />
          </mxGeometry>
        </mxCell>
        <mxCell id="n3yEZyMTPkoygYLhiBQ4-55" value="" style="rounded=0;whiteSpace=wrap;html=1;fillColor=default;strokeColor=#AD105C;strokeWidth=0.5;" vertex="1" parent="1">
          <mxGeometry x="535" y="240" width="10" height="30" as="geometry" />
        </mxCell>
        <mxCell id="n3yEZyMTPkoygYLhiBQ4-57" value="" style="endArrow=classic;html=1;rounded=0;strokeColor=#AD105C;" edge="1" parent="1">
          <mxGeometry width="50" height="50" relative="1" as="geometry">
            <mxPoint x="545" y="270" as="sourcePoint" />
            <mxPoint x="615" y="270" as="targetPoint" />
          </mxGeometry>
        </mxCell>
        <mxCell id="n3yEZyMTPkoygYLhiBQ4-59" value="" style="endArrow=classic;html=1;rounded=0;strokeColor=#AD105C;" edge="1" parent="1">
          <mxGeometry width="50" height="50" relative="1" as="geometry">
            <mxPoint x="615" y="290" as="sourcePoint" />
            <mxPoint x="305" y="290" as="targetPoint" />
          </mxGeometry>
        </mxCell>
        <mxCell id="n3yEZyMTPkoygYLhiBQ4-61" value="" style="endArrow=none;html=1;rounded=0;strokeColor=#AD105C;dashed=1;" edge="1" parent="1" source="n3yEZyMTPkoygYLhiBQ4-104" target="n3yEZyMTPkoygYLhiBQ4-60">
          <mxGeometry width="50" height="50" relative="1" as="geometry">
            <mxPoint x="619.97" y="1120" as="sourcePoint" />
            <mxPoint x="619.81" y="130" as="targetPoint" />
          </mxGeometry>
        </mxCell>
        <mxCell id="n3yEZyMTPkoygYLhiBQ4-60" value="" style="rounded=0;whiteSpace=wrap;html=1;fillColor=default;strokeColor=#AD105C;strokeWidth=0.5;" vertex="1" parent="1">
          <mxGeometry x="615" y="270" width="10" height="100" as="geometry" />
        </mxCell>
        <mxCell id="n3yEZyMTPkoygYLhiBQ4-62" value="list_audit_findings(taskId=&#39;&lt;b&gt;taskId&lt;/b&gt;&#39;, checkName=&#39;&lt;b&gt;DeviceCertExp&lt;/b&gt;&#39;)" style="text;html=1;strokeColor=none;fillColor=default;align=left;verticalAlign=middle;whiteSpace=wrap;rounded=0;fontSize=10;" vertex="1" parent="1">
          <mxGeometry x="320" y="278" width="290" height="11" as="geometry" />
        </mxCell>
        <mxCell id="n3yEZyMTPkoygYLhiBQ4-63" value="" style="endArrow=classic;html=1;rounded=0;strokeColor=#AD105C;dashed=1;" edge="1" parent="1">
          <mxGeometry width="50" height="50" relative="1" as="geometry">
            <mxPoint x="305" y="310" as="sourcePoint" />
            <mxPoint x="615" y="310" as="targetPoint" />
          </mxGeometry>
        </mxCell>
        <mxCell id="n3yEZyMTPkoygYLhiBQ4-64" value="response(&lt;b&gt;deviceCertId&lt;/b&gt;)" style="text;html=1;strokeColor=none;fillColor=default;align=left;verticalAlign=middle;whiteSpace=wrap;rounded=0;fontSize=10;" vertex="1" parent="1">
          <mxGeometry x="320" y="298" width="110" height="11" as="geometry" />
        </mxCell>
        <mxCell id="n3yEZyMTPkoygYLhiBQ4-66" value="" style="endArrow=classic;html=1;rounded=0;strokeColor=#AD105C;" edge="1" parent="1">
          <mxGeometry width="50" height="50" relative="1" as="geometry">
            <mxPoint x="615" y="330" as="sourcePoint" />
            <mxPoint x="305" y="330" as="targetPoint" />
          </mxGeometry>
        </mxCell>
        <mxCell id="n3yEZyMTPkoygYLhiBQ4-67" value="&lt;div&gt;list_principal_things(&lt;span style=&quot;background-color: initial;&quot;&gt;principal=&lt;/span&gt;&lt;b style=&quot;border-color: var(--border-color);&quot;&gt;deviceCertArn&lt;/b&gt;&lt;span style=&quot;background-color: initial;&quot;&gt;)&lt;/span&gt;&lt;/div&gt;" style="text;html=1;strokeColor=none;fillColor=default;align=left;verticalAlign=middle;whiteSpace=wrap;rounded=0;fontSize=10;" vertex="1" parent="1">
          <mxGeometry x="320" y="318" width="210" height="11" as="geometry" />
        </mxCell>
        <mxCell id="n3yEZyMTPkoygYLhiBQ4-68" value="response(&#39;things&#39;:[&#39;&lt;b&gt;thingName&lt;/b&gt;&#39;])" style="text;html=1;strokeColor=none;fillColor=default;align=left;verticalAlign=middle;whiteSpace=wrap;rounded=0;fontSize=10;" vertex="1" parent="1">
          <mxGeometry x="320" y="338" width="150" height="11" as="geometry" />
        </mxCell>
        <mxCell id="n3yEZyMTPkoygYLhiBQ4-69" value="" style="endArrow=classic;html=1;rounded=0;strokeColor=#AD105C;dashed=1;" edge="1" parent="1">
          <mxGeometry width="50" height="50" relative="1" as="geometry">
            <mxPoint x="305" y="350" as="sourcePoint" />
            <mxPoint x="615" y="350" as="targetPoint" />
          </mxGeometry>
        </mxCell>
        <mxCell id="n3yEZyMTPkoygYLhiBQ4-70" value="" style="endArrow=classic;html=1;rounded=0;strokeColor=#AD105C;" edge="1" parent="1">
          <mxGeometry width="50" height="50" relative="1" as="geometry">
            <mxPoint x="615" y="370" as="sourcePoint" />
            <mxPoint x="305" y="370" as="targetPoint" />
          </mxGeometry>
        </mxCell>
        <mxCell id="n3yEZyMTPkoygYLhiBQ4-72" value="&lt;div&gt;MQTT Topic: &quot;device/&lt;b&gt;thingName&lt;/b&gt;/csr_req&quot; Message: {}&lt;/div&gt;" style="text;html=1;strokeColor=none;fillColor=default;align=left;verticalAlign=middle;whiteSpace=wrap;rounded=0;fontSize=10;" vertex="1" parent="1">
          <mxGeometry x="320" y="358" width="250" height="11" as="geometry" />
        </mxCell>
        <mxCell id="n3yEZyMTPkoygYLhiBQ4-76" value="" style="endArrow=none;html=1;rounded=0;strokeColor=#AD105C;dashed=1;" edge="1" parent="1" target="n3yEZyMTPkoygYLhiBQ4-73">
          <mxGeometry width="50" height="50" relative="1" as="geometry">
            <mxPoint x="690" y="1130" as="sourcePoint" />
            <mxPoint x="689.5999999999999" y="130" as="targetPoint" />
          </mxGeometry>
        </mxCell>
        <mxCell id="n3yEZyMTPkoygYLhiBQ4-73" value="" style="rounded=0;whiteSpace=wrap;html=1;fillColor=default;strokeColor=#AD105C;strokeWidth=0.5;" vertex="1" parent="1">
          <mxGeometry x="685" y="140" width="10" height="970" as="geometry" />
        </mxCell>
        <mxCell id="n3yEZyMTPkoygYLhiBQ4-77" value="" style="rounded=0;whiteSpace=wrap;html=1;fillColor=default;strokeColor=#AD105C;strokeWidth=0.5;" vertex="1" parent="1">
          <mxGeometry x="745" y="140" width="10" height="990" as="geometry" />
        </mxCell>
        <mxCell id="n3yEZyMTPkoygYLhiBQ4-58" value="CertRotationFct(&lt;br&gt;&amp;nbsp; &quot;taskId&quot;:&lt;b&gt;taskId&lt;/b&gt;,&lt;br&gt;&lt;span style=&quot;background-color: initial;&quot;&gt;&amp;nbsp; &quot;scheduledAuditName&quot;:&quot;&lt;b&gt;DeviceCertExp&lt;/b&gt;&quot;&lt;/span&gt;&lt;span style=&quot;background-color: initial;&quot;&gt;)&lt;/span&gt;" style="text;html=1;strokeColor=none;fillColor=none;align=left;verticalAlign=middle;whiteSpace=wrap;rounded=0;fontSize=10;" vertex="1" parent="1">
          <mxGeometry x="545" y="215" width="195" height="55" as="geometry" />
        </mxCell>
        <mxCell id="n3yEZyMTPkoygYLhiBQ4-81" value="&lt;div&gt;MQTT Topic: &quot;device/&lt;b&gt;thingName&lt;/b&gt;/csr_req&quot; Message: {}&lt;/div&gt;" style="text;html=1;strokeColor=none;fillColor=default;align=left;verticalAlign=middle;whiteSpace=wrap;rounded=0;fontSize=10;" vertex="1" parent="1">
          <mxGeometry x="200" y="388" width="250" height="11" as="geometry" />
        </mxCell>
        <mxCell id="n3yEZyMTPkoygYLhiBQ4-82" value="" style="endArrow=classic;html=1;rounded=0;strokeColor=#AD105C;" edge="1" parent="1">
          <mxGeometry width="50" height="50" relative="1" as="geometry">
            <mxPoint x="295" y="400" as="sourcePoint" />
            <mxPoint x="185" y="400" as="targetPoint" />
          </mxGeometry>
        </mxCell>
        <mxCell id="n3yEZyMTPkoygYLhiBQ4-85" value="" style="rounded=0;whiteSpace=wrap;html=1;fillColor=none;strokeColor=#AD105C;strokeWidth=0.5;" vertex="1" parent="1">
          <mxGeometry x="210" y="460" width="10" height="670" as="geometry" />
        </mxCell>
        <mxCell id="n3yEZyMTPkoygYLhiBQ4-86" value="" style="rounded=0;whiteSpace=wrap;html=1;fillColor=none;strokeColor=#AD105C;strokeWidth=0.5;" vertex="1" parent="1">
          <mxGeometry x="235" y="530" width="10" height="250" as="geometry" />
        </mxCell>
        <mxCell id="n3yEZyMTPkoygYLhiBQ4-87" value="" style="rounded=0;whiteSpace=wrap;html=1;fillColor=none;strokeColor=#AD105C;strokeWidth=0.5;" vertex="1" parent="1">
          <mxGeometry x="260" y="860" width="10" height="270" as="geometry" />
        </mxCell>
        <mxCell id="n3yEZyMTPkoygYLhiBQ4-88" value="" style="endArrow=classic;html=1;rounded=0;strokeColor=#AD105C;" edge="1" parent="1">
          <mxGeometry width="50" height="50" relative="1" as="geometry">
            <mxPoint x="185" y="430" as="sourcePoint" />
            <mxPoint x="210" y="430" as="targetPoint" />
          </mxGeometry>
        </mxCell>
        <mxCell id="n3yEZyMTPkoygYLhiBQ4-89" value="&lt;div&gt;Generate new private key&lt;/div&gt;" style="text;html=1;strokeColor=none;fillColor=default;align=left;verticalAlign=middle;whiteSpace=wrap;rounded=0;fontSize=10;" vertex="1" parent="1">
          <mxGeometry x="252.5" y="420.49" width="95" height="21" as="geometry" />
        </mxCell>
        <mxCell id="n3yEZyMTPkoygYLhiBQ4-90" value="" style="endArrow=none;html=1;rounded=0;strokeColor=#AD105C;dashed=1;" edge="1" parent="1">
          <mxGeometry width="50" height="50" relative="1" as="geometry">
            <mxPoint x="214.86" y="460" as="sourcePoint" />
            <mxPoint x="214.86" y="442" as="targetPoint" />
          </mxGeometry>
        </mxCell>
        <mxCell id="n3yEZyMTPkoygYLhiBQ4-92" value="" style="endArrow=classic;html=1;rounded=0;strokeColor=#AD105C;exitX=0;exitY=0;exitDx=0;exitDy=0;endSize=6;sourcePerimeterSpacing=0;startSize=6;dashed=1;" edge="1" parent="1">
          <mxGeometry width="50" height="50" relative="1" as="geometry">
            <mxPoint x="210" y="460.0000000000074" as="sourcePoint" />
            <mxPoint x="185" y="460" as="targetPoint" />
          </mxGeometry>
        </mxCell>
        <mxCell id="n3yEZyMTPkoygYLhiBQ4-93" value="" style="endArrow=classic;html=1;rounded=0;strokeColor=#AD105C;" edge="1" parent="1">
          <mxGeometry width="50" height="50" relative="1" as="geometry">
            <mxPoint x="185" y="490" as="sourcePoint" />
            <mxPoint x="230" y="490" as="targetPoint" />
          </mxGeometry>
        </mxCell>
        <mxCell id="n3yEZyMTPkoygYLhiBQ4-94" value="&lt;div&gt;Generate CSR using private key&lt;/div&gt;" style="text;html=1;strokeColor=none;fillColor=default;align=left;verticalAlign=middle;whiteSpace=wrap;rounded=0;fontSize=10;" vertex="1" parent="1">
          <mxGeometry x="270" y="479.00000000000006" width="99" height="21" as="geometry" />
        </mxCell>
        <mxCell id="n3yEZyMTPkoygYLhiBQ4-96" value="" style="endArrow=none;html=1;rounded=0;strokeColor=#AD105C;dashed=1;" edge="1" parent="1">
          <mxGeometry width="50" height="50" relative="1" as="geometry">
            <mxPoint x="240" y="530" as="sourcePoint" />
            <mxPoint x="240" y="510" as="targetPoint" />
          </mxGeometry>
        </mxCell>
        <mxCell id="n3yEZyMTPkoygYLhiBQ4-97" value="" style="endArrow=none;html=1;rounded=0;strokeColor=#AD105C;dashed=1;entryX=0.5;entryY=1;entryDx=0;entryDy=0;" edge="1" parent="1" target="n3yEZyMTPkoygYLhiBQ4-86">
          <mxGeometry width="50" height="50" relative="1" as="geometry">
            <mxPoint x="240" y="1130" as="sourcePoint" />
            <mxPoint x="250" y="520" as="targetPoint" />
          </mxGeometry>
        </mxCell>
        <mxCell id="n3yEZyMTPkoygYLhiBQ4-98" value="" style="endArrow=classic;html=1;rounded=0;strokeColor=#AD105C;exitX=0;exitY=0;exitDx=0;exitDy=0;endSize=6;sourcePerimeterSpacing=0;startSize=6;dashed=1;" edge="1" parent="1">
          <mxGeometry width="50" height="50" relative="1" as="geometry">
            <mxPoint x="235" y="530.0000000000074" as="sourcePoint" />
            <mxPoint x="185" y="530" as="targetPoint" />
          </mxGeometry>
        </mxCell>
        <mxCell id="n3yEZyMTPkoygYLhiBQ4-99" value="" style="endArrow=classic;html=1;rounded=0;strokeColor=#AD105C;" edge="1" parent="1">
          <mxGeometry width="50" height="50" relative="1" as="geometry">
            <mxPoint x="185" y="560" as="sourcePoint" />
            <mxPoint x="295" y="560" as="targetPoint" />
          </mxGeometry>
        </mxCell>
        <mxCell id="n3yEZyMTPkoygYLhiBQ4-100" value="&lt;div&gt;MQTT Topic: &quot;lambda/&lt;b&gt;thingName&lt;/b&gt;/csr_res&quot; Message: {&#39;CSR&#39;:&lt;b&gt;CSR&lt;/b&gt;}&lt;/div&gt;" style="text;html=1;strokeColor=none;fillColor=default;align=left;verticalAlign=middle;whiteSpace=wrap;rounded=0;fontSize=10;" vertex="1" parent="1">
          <mxGeometry x="190" y="544" width="295" height="11" as="geometry" />
        </mxCell>
        <mxCell id="n3yEZyMTPkoygYLhiBQ4-101" value="" style="endArrow=classic;html=1;rounded=0;strokeColor=#AD105C;" edge="1" parent="1">
          <mxGeometry width="50" height="50" relative="1" as="geometry">
            <mxPoint x="305" y="580" as="sourcePoint" />
            <mxPoint x="455" y="580" as="targetPoint" />
          </mxGeometry>
        </mxCell>
        <mxCell id="n3yEZyMTPkoygYLhiBQ4-102" value="&lt;div&gt;MQTT Topic: &quot;lambda/&lt;b&gt;thingName&lt;/b&gt;/csr_res&quot; Message: {&#39;CSR&#39;:&lt;b&gt;CSR&lt;/b&gt;}&lt;/div&gt;" style="text;html=1;strokeColor=none;fillColor=default;align=left;verticalAlign=middle;whiteSpace=wrap;rounded=0;fontSize=10;" vertex="1" parent="1">
          <mxGeometry x="310" y="564" width="295" height="11" as="geometry" />
        </mxCell>
        <mxCell id="n3yEZyMTPkoygYLhiBQ4-103" value="" style="endArrow=classic;html=1;rounded=0;strokeColor=#AD105C;" edge="1" parent="1">
          <mxGeometry width="50" height="50" relative="1" as="geometry">
            <mxPoint x="465" y="600" as="sourcePoint" />
            <mxPoint x="615" y="600" as="targetPoint" />
          </mxGeometry>
        </mxCell>
        <mxCell id="n3yEZyMTPkoygYLhiBQ4-105" value="" style="endArrow=none;html=1;rounded=0;strokeColor=#AD105C;dashed=1;" edge="1" parent="1" source="n3yEZyMTPkoygYLhiBQ4-141" target="n3yEZyMTPkoygYLhiBQ4-104">
          <mxGeometry width="50" height="50" relative="1" as="geometry">
            <mxPoint x="619.97" y="1120" as="sourcePoint" />
            <mxPoint x="620" y="370" as="targetPoint" />
          </mxGeometry>
        </mxCell>
        <mxCell id="n3yEZyMTPkoygYLhiBQ4-104" value="" style="rounded=0;whiteSpace=wrap;html=1;fillColor=default;strokeColor=#AD105C;strokeWidth=0.5;" vertex="1" parent="1">
          <mxGeometry x="615" y="600" width="10" height="170" as="geometry" />
        </mxCell>
        <mxCell id="n3yEZyMTPkoygYLhiBQ4-106" value="&lt;div&gt;{&#39;thingName&#39;:&lt;b&gt;thingName&lt;/b&gt;, &#39;CSR&#39;:&lt;b&gt;CSR&lt;/b&gt;}&lt;/div&gt;" style="text;html=1;strokeColor=none;fillColor=default;align=left;verticalAlign=middle;whiteSpace=wrap;rounded=0;fontSize=10;" vertex="1" parent="1">
          <mxGeometry x="470" y="584" width="170" height="11" as="geometry" />
        </mxCell>
        <mxCell id="n3yEZyMTPkoygYLhiBQ4-107" value="" style="endArrow=classic;html=1;rounded=0;strokeColor=#AD105C;" edge="1" parent="1">
          <mxGeometry width="50" height="50" relative="1" as="geometry">
            <mxPoint x="615" y="629.85" as="sourcePoint" />
            <mxPoint x="305" y="629.85" as="targetPoint" />
          </mxGeometry>
        </mxCell>
        <mxCell id="n3yEZyMTPkoygYLhiBQ4-108" value="&lt;div&gt;create_certificate_from_csr(&lt;/div&gt;&lt;div&gt;&lt;span style=&quot;background-color: initial;&quot;&gt;certificateSigningRequest=&lt;b&gt;CSR&lt;/b&gt;,&amp;nbsp;&lt;/span&gt;&lt;span style=&quot;background-color: initial;&quot;&gt;setAsActive=True&lt;/span&gt;&lt;span style=&quot;background-color: initial;&quot;&gt;)&lt;/span&gt;&lt;/div&gt;" style="text;html=1;strokeColor=none;fillColor=default;align=left;verticalAlign=middle;whiteSpace=wrap;rounded=0;fontSize=10;" vertex="1" parent="1">
          <mxGeometry x="315" y="605.12" width="235" height="22" as="geometry" />
        </mxCell>
        <mxCell id="n3yEZyMTPkoygYLhiBQ4-110" value="" style="endArrow=classic;html=1;rounded=0;strokeColor=#AD105C;" edge="1" parent="1">
          <mxGeometry width="50" height="50" relative="1" as="geometry">
            <mxPoint x="305" y="649.5500000000001" as="sourcePoint" />
            <mxPoint x="635" y="649.5500000000001" as="targetPoint" />
          </mxGeometry>
        </mxCell>
        <mxCell id="n3yEZyMTPkoygYLhiBQ4-111" value="Cert (new)" style="text;html=1;strokeColor=none;fillColor=none;align=center;verticalAlign=middle;whiteSpace=wrap;rounded=0;" vertex="1" parent="1">
          <mxGeometry x="625" y="676.44" width="60" height="10" as="geometry" />
        </mxCell>
        <mxCell id="n3yEZyMTPkoygYLhiBQ4-112" value="" style="rounded=0;whiteSpace=wrap;html=1;fillColor=default;strokeColor=#AD105C;strokeWidth=0.5;" vertex="1" parent="1">
          <mxGeometry x="650" y="690" width="10" height="440" as="geometry" />
        </mxCell>
        <mxCell id="n3yEZyMTPkoygYLhiBQ4-113" value="" style="endArrow=classic;html=1;rounded=0;strokeColor=#AD105C;dashed=1;" edge="1" parent="1">
          <mxGeometry width="50" height="50" relative="1" as="geometry">
            <mxPoint x="305" y="680.0000000000001" as="sourcePoint" />
            <mxPoint x="615" y="680.0000000000001" as="targetPoint" />
          </mxGeometry>
        </mxCell>
        <mxCell id="n3yEZyMTPkoygYLhiBQ4-114" value="&lt;div&gt;{&#39;certArn&#39;:&lt;b&gt;certArn&lt;/b&gt;, &#39;certId&#39;:&lt;b&gt;newCertId&lt;/b&gt;, &#39;certPem&#39;:&lt;b&gt;PEM&lt;/b&gt;}&lt;/div&gt;" style="text;html=1;strokeColor=none;fillColor=default;align=left;verticalAlign=middle;whiteSpace=wrap;rounded=0;fontSize=10;" vertex="1" parent="1">
          <mxGeometry x="320" y="668" width="240" height="11" as="geometry" />
        </mxCell>
        <mxCell id="n3yEZyMTPkoygYLhiBQ4-115" value="" style="endArrow=classic;html=1;rounded=0;strokeColor=#AD105C;" edge="1" parent="1">
          <mxGeometry width="50" height="50" relative="1" as="geometry">
            <mxPoint x="615" y="700" as="sourcePoint" />
            <mxPoint x="305" y="700" as="targetPoint" />
          </mxGeometry>
        </mxCell>
        <mxCell id="n3yEZyMTPkoygYLhiBQ4-116" value="&lt;div&gt;attach_policy(&lt;span style=&quot;background-color: initial;&quot;&gt;policyName=&quot;PolicyName&quot;,&amp;nbsp;&lt;/span&gt;&lt;span style=&quot;background-color: initial;&quot;&gt;target=&lt;/span&gt;&lt;b style=&quot;background-color: initial;&quot;&gt;newCertArn&lt;/b&gt;&lt;span style=&quot;background-color: initial;&quot;&gt;)&lt;/span&gt;&lt;/div&gt;" style="text;html=1;strokeColor=none;fillColor=default;align=left;verticalAlign=middle;whiteSpace=wrap;rounded=0;fontSize=10;" vertex="1" parent="1">
          <mxGeometry x="320" y="688" width="240" height="11" as="geometry" />
        </mxCell>
        <mxCell id="n3yEZyMTPkoygYLhiBQ4-117" value="" style="endArrow=classic;html=1;rounded=0;strokeColor=#AD105C;" edge="1" parent="1">
          <mxGeometry width="50" height="50" relative="1" as="geometry">
            <mxPoint x="625" y="720" as="sourcePoint" />
            <mxPoint x="745" y="720" as="targetPoint" />
          </mxGeometry>
        </mxCell>
        <mxCell id="n3yEZyMTPkoygYLhiBQ4-118" value="" style="endArrow=classic;html=1;rounded=0;strokeColor=#AD105C;dashed=1;" edge="1" parent="1">
          <mxGeometry width="50" height="50" relative="1" as="geometry">
            <mxPoint x="305" y="740.0000000000001" as="sourcePoint" />
            <mxPoint x="615" y="740.0000000000001" as="targetPoint" />
          </mxGeometry>
        </mxCell>
        <mxCell id="n3yEZyMTPkoygYLhiBQ4-119" value="" style="endArrow=classic;html=1;rounded=0;strokeColor=#AD105C;" edge="1" parent="1">
          <mxGeometry width="50" height="50" relative="1" as="geometry">
            <mxPoint x="615" y="760.0000000000001" as="sourcePoint" />
            <mxPoint x="305" y="760" as="targetPoint" />
          </mxGeometry>
        </mxCell>
        <mxCell id="n3yEZyMTPkoygYLhiBQ4-120" value="&lt;div&gt;MQTT Topic: &quot;device/&lt;b&gt;thingName&lt;/b&gt;/crt&quot; Message: {&#39;certPem&#39;:&lt;b&gt;PEM&lt;/b&gt;}&lt;/div&gt;" style="text;html=1;strokeColor=none;fillColor=default;align=left;verticalAlign=middle;whiteSpace=wrap;rounded=0;fontSize=10;" vertex="1" parent="1">
          <mxGeometry x="320" y="748" width="290" height="11" as="geometry" />
        </mxCell>
        <mxCell id="n3yEZyMTPkoygYLhiBQ4-121" value="" style="endArrow=classic;html=1;rounded=0;strokeColor=#AD105C;" edge="1" parent="1">
          <mxGeometry width="50" height="50" relative="1" as="geometry">
            <mxPoint x="295" y="780.0000000000001" as="sourcePoint" />
            <mxPoint x="185" y="780" as="targetPoint" />
          </mxGeometry>
        </mxCell>
        <mxCell id="n3yEZyMTPkoygYLhiBQ4-122" value="&lt;div&gt;MQTT Topic: &quot;device/&lt;b&gt;thingName&lt;/b&gt;/crt&quot; Message: {&#39;certPem&#39;:&lt;b&gt;PEM&lt;/b&gt;}&lt;/div&gt;" style="text;html=1;strokeColor=none;fillColor=default;align=left;verticalAlign=middle;whiteSpace=wrap;rounded=0;fontSize=10;" vertex="1" parent="1">
          <mxGeometry x="195" y="768" width="290" height="11" as="geometry" />
        </mxCell>
        <mxCell id="n3yEZyMTPkoygYLhiBQ4-123" value="" style="endArrow=classic;html=1;rounded=0;strokeColor=#AD105C;" edge="1" parent="1">
          <mxGeometry width="50" height="50" relative="1" as="geometry">
            <mxPoint x="185" y="800" as="sourcePoint" />
            <mxPoint x="250" y="800" as="targetPoint" />
          </mxGeometry>
        </mxCell>
        <mxCell id="n3yEZyMTPkoygYLhiBQ4-124" value="&lt;div&gt;Store new certificate&lt;/div&gt;" style="text;html=1;strokeColor=none;fillColor=default;align=left;verticalAlign=middle;whiteSpace=wrap;rounded=0;fontSize=10;" vertex="1" parent="1">
          <mxGeometry x="290.5" y="800" width="49.5" height="21" as="geometry" />
        </mxCell>
        <mxCell id="n3yEZyMTPkoygYLhiBQ4-125" value="Cert (new)" style="text;html=1;strokeColor=none;fillColor=none;align=center;verticalAlign=middle;whiteSpace=wrap;rounded=0;" vertex="1" parent="1">
          <mxGeometry x="240" y="842.8800000000001" width="60" height="10" as="geometry" />
        </mxCell>
        <mxCell id="n3yEZyMTPkoygYLhiBQ4-126" value="" style="endArrow=classic;html=1;rounded=0;strokeColor=#AD105C;" edge="1" parent="1">
          <mxGeometry width="50" height="50" relative="1" as="geometry">
            <mxPoint x="185" y="870" as="sourcePoint" />
            <mxPoint x="185" y="890" as="targetPoint" />
            <Array as="points">
              <mxPoint x="200" y="870" />
              <mxPoint x="200" y="890" />
            </Array>
          </mxGeometry>
        </mxCell>
        <mxCell id="n3yEZyMTPkoygYLhiBQ4-127" value="&lt;div&gt;Overwrite old private key by new one&lt;/div&gt;" style="text;html=1;strokeColor=none;fillColor=default;align=left;verticalAlign=middle;whiteSpace=wrap;rounded=0;fontSize=10;" vertex="1" parent="1">
          <mxGeometry x="109" y="865" width="64.5" height="30" as="geometry" />
        </mxCell>
        <mxCell id="n3yEZyMTPkoygYLhiBQ4-128" value="" style="endArrow=none;html=1;rounded=0;strokeColor=#AD105C;dashed=1;" edge="1" parent="1">
          <mxGeometry width="50" height="50" relative="1" as="geometry">
            <mxPoint x="60" y="1130" as="sourcePoint" />
            <mxPoint x="60" y="890" as="targetPoint" />
          </mxGeometry>
        </mxCell>
        <mxCell id="n3yEZyMTPkoygYLhiBQ4-129" value="" style="endArrow=classic;html=1;rounded=0;strokeColor=#AD105C;" edge="1" parent="1">
          <mxGeometry width="50" height="50" relative="1" as="geometry">
            <mxPoint x="185" y="910" as="sourcePoint" />
            <mxPoint x="185" y="930" as="targetPoint" />
            <Array as="points">
              <mxPoint x="200" y="910" />
              <mxPoint x="200" y="930" />
            </Array>
          </mxGeometry>
        </mxCell>
        <mxCell id="n3yEZyMTPkoygYLhiBQ4-130" value="&lt;div&gt;Overwrite old certificate by new one&lt;/div&gt;" style="text;html=1;strokeColor=none;fillColor=default;align=left;verticalAlign=middle;whiteSpace=wrap;rounded=0;fontSize=10;" vertex="1" parent="1">
          <mxGeometry x="109.5" y="900" width="64.5" height="40" as="geometry" />
        </mxCell>
        <mxCell id="n3yEZyMTPkoygYLhiBQ4-131" value="" style="endArrow=none;html=1;rounded=0;strokeColor=#AD105C;dashed=1;" edge="1" parent="1">
          <mxGeometry width="50" height="50" relative="1" as="geometry">
            <mxPoint x="110" y="1130" as="sourcePoint" />
            <mxPoint x="110" y="940" as="targetPoint" />
          </mxGeometry>
        </mxCell>
        <mxCell id="n3yEZyMTPkoygYLhiBQ4-132" value="" style="endArrow=classic;html=1;rounded=0;strokeColor=#AD105C;" edge="1" parent="1">
          <mxGeometry width="50" height="50" relative="1" as="geometry">
            <mxPoint x="185" y="951" as="sourcePoint" />
            <mxPoint x="295" y="951" as="targetPoint" />
          </mxGeometry>
        </mxCell>
        <mxCell id="n3yEZyMTPkoygYLhiBQ4-133" value="MQTT Session" style="text;html=1;strokeColor=none;fillColor=default;align=center;verticalAlign=middle;whiteSpace=wrap;rounded=0;fontSize=10;" vertex="1" parent="1">
          <mxGeometry x="190" y="938" width="70" height="11" as="geometry" />
        </mxCell>
        <mxCell id="n3yEZyMTPkoygYLhiBQ4-134" value="" style="endArrow=classic;html=1;rounded=0;strokeColor=#AD105C;" edge="1" parent="1">
          <mxGeometry width="50" height="50" relative="1" as="geometry">
            <mxPoint x="184.5" y="980" as="sourcePoint" />
            <mxPoint x="295" y="980.14" as="targetPoint" />
          </mxGeometry>
        </mxCell>
        <mxCell id="n3yEZyMTPkoygYLhiBQ4-135" value="&lt;div&gt;MQTT Topic: &quot;lambda/&lt;b&gt;thingName&lt;/b&gt;/crt_ack&quot; Message: {}&lt;/div&gt;" style="text;html=1;strokeColor=none;fillColor=default;align=left;verticalAlign=middle;whiteSpace=wrap;rounded=0;fontSize=10;" vertex="1" parent="1">
          <mxGeometry x="190.25" y="964" width="250" height="11" as="geometry" />
        </mxCell>
        <mxCell id="n3yEZyMTPkoygYLhiBQ4-136" value="" style="endArrow=classic;html=1;rounded=0;strokeColor=#AD105C;" edge="1" parent="1">
          <mxGeometry width="50" height="50" relative="1" as="geometry">
            <mxPoint x="185" y="1000" as="sourcePoint" />
            <mxPoint x="185" y="1020" as="targetPoint" />
            <Array as="points">
              <mxPoint x="200" y="1000" />
              <mxPoint x="200" y="1020" />
            </Array>
          </mxGeometry>
        </mxCell>
        <mxCell id="n3yEZyMTPkoygYLhiBQ4-137" value="&lt;div&gt;Restart Greengrass service&lt;/div&gt;" style="text;html=1;strokeColor=none;fillColor=default;align=left;verticalAlign=middle;whiteSpace=wrap;rounded=0;fontSize=10;" vertex="1" parent="1">
          <mxGeometry x="120" y="990" width="54" height="40" as="geometry" />
        </mxCell>
        <mxCell id="n3yEZyMTPkoygYLhiBQ4-138" value="" style="endArrow=classic;html=1;rounded=0;strokeColor=#AD105C;" edge="1" parent="1">
          <mxGeometry width="50" height="50" relative="1" as="geometry">
            <mxPoint x="305" y="1000" as="sourcePoint" />
            <mxPoint x="455" y="1000" as="targetPoint" />
          </mxGeometry>
        </mxCell>
        <mxCell id="n3yEZyMTPkoygYLhiBQ4-139" value="&lt;div&gt;MQTT Topic: &quot;lambda/&lt;b&gt;thingName&lt;/b&gt;/crt_ack&quot; Message: {}&lt;/div&gt;" style="text;html=1;strokeColor=none;fillColor=default;align=left;verticalAlign=middle;whiteSpace=wrap;rounded=0;fontSize=10;" vertex="1" parent="1">
          <mxGeometry x="310" y="984" width="250" height="11" as="geometry" />
        </mxCell>
        <mxCell id="n3yEZyMTPkoygYLhiBQ4-140" value="" style="endArrow=classic;html=1;rounded=0;strokeColor=#AD105C;" edge="1" parent="1">
          <mxGeometry width="50" height="50" relative="1" as="geometry">
            <mxPoint x="465" y="1010" as="sourcePoint" />
            <mxPoint x="615" y="1010" as="targetPoint" />
          </mxGeometry>
        </mxCell>
        <mxCell id="n3yEZyMTPkoygYLhiBQ4-142" value="" style="endArrow=classic;html=1;rounded=0;strokeColor=#AD105C;" edge="1" parent="1">
          <mxGeometry width="50" height="50" relative="1" as="geometry">
            <mxPoint x="625" y="1040" as="sourcePoint" />
            <mxPoint x="685" y="1040" as="targetPoint" />
          </mxGeometry>
        </mxCell>
        <mxCell id="n3yEZyMTPkoygYLhiBQ4-143" value="" style="endArrow=classic;html=1;rounded=0;strokeColor=#AD105C;dashed=1;" edge="1" parent="1">
          <mxGeometry width="50" height="50" relative="1" as="geometry">
            <mxPoint x="685" y="1050" as="sourcePoint" />
            <mxPoint x="625" y="1050" as="targetPoint" />
          </mxGeometry>
        </mxCell>
        <mxCell id="n3yEZyMTPkoygYLhiBQ4-144" value="" style="endArrow=classic;html=1;rounded=0;strokeColor=#AD105C;dashed=1;" edge="1" parent="1">
          <mxGeometry width="50" height="50" relative="1" as="geometry">
            <mxPoint x="685" y="1110" as="sourcePoint" />
            <mxPoint x="625" y="1110" as="targetPoint" />
          </mxGeometry>
        </mxCell>
        <mxCell id="n3yEZyMTPkoygYLhiBQ4-145" value="" style="endArrow=classic;html=1;rounded=0;strokeColor=#AD105C;" edge="1" parent="1">
          <mxGeometry width="50" height="50" relative="1" as="geometry">
            <mxPoint x="625" y="1100" as="sourcePoint" />
            <mxPoint x="685" y="1100" as="targetPoint" />
          </mxGeometry>
        </mxCell>
        <mxCell id="n3yEZyMTPkoygYLhiBQ4-146" value="&lt;div&gt;update_certificate(&lt;/div&gt;&lt;div&gt;&amp;nbsp; certificateId=&lt;b style=&quot;border-color: var(--border-color);&quot;&gt;deviceCertId&lt;/b&gt;&lt;span style=&quot;background-color: initial;&quot;&gt;,&amp;nbsp; &amp;nbsp;newStatus=&#39;REVOKED&#39;)&lt;/span&gt;&lt;/div&gt;" style="text;html=1;strokeColor=none;fillColor=default;align=left;verticalAlign=middle;whiteSpace=wrap;rounded=0;fontSize=10;" vertex="1" parent="1">
          <mxGeometry x="625" y="994" width="127" height="40" as="geometry" />
        </mxCell>
        <mxCell id="n3yEZyMTPkoygYLhiBQ4-148" value="" style="endArrow=none;html=1;rounded=0;strokeColor=#AD105C;dashed=1;" edge="1" parent="1" target="n3yEZyMTPkoygYLhiBQ4-141">
          <mxGeometry width="50" height="50" relative="1" as="geometry">
            <mxPoint x="620" y="1130" as="sourcePoint" />
            <mxPoint x="620" y="770" as="targetPoint" />
          </mxGeometry>
        </mxCell>
        <mxCell id="n3yEZyMTPkoygYLhiBQ4-141" value="" style="rounded=0;whiteSpace=wrap;html=1;fillColor=default;strokeColor=#AD105C;strokeWidth=0.5;" vertex="1" parent="1">
          <mxGeometry x="615" y="1010" width="10" height="100" as="geometry" />
        </mxCell>
        <mxCell id="n3yEZyMTPkoygYLhiBQ4-149" value="&lt;div&gt;delete_certificate(&lt;/div&gt;&lt;div&gt;&amp;nbsp; certificateId=&lt;b style=&quot;border-color: var(--border-color);&quot;&gt;deviceCertId&lt;/b&gt;&lt;span style=&quot;background-color: initial;&quot;&gt;)&lt;/span&gt;&lt;/div&gt;" style="text;html=1;strokeColor=none;fillColor=default;align=left;verticalAlign=middle;whiteSpace=wrap;rounded=0;fontSize=10;" vertex="1" parent="1">
          <mxGeometry x="626" y="1070" width="125" height="24" as="geometry" />
        </mxCell>
        <mxCell id="n3yEZyMTPkoygYLhiBQ4-150" value="IoT Device is using new private key and new cert to establish the MQTT Session" style="shape=note;whiteSpace=wrap;html=1;backgroundOutline=1;darkOpacity=0.05;strokeColor=#3333FF;size=9;align=left;fontSize=10;" vertex="1" parent="1">
          <mxGeometry x="220" y="905" width="190" height="30" as="geometry" />
        </mxCell>
        <mxCell id="n3yEZyMTPkoygYLhiBQ4-151" value="New cert is associated with existing IoT Policy" style="shape=note;whiteSpace=wrap;html=1;backgroundOutline=1;darkOpacity=0.05;strokeColor=#3333FF;size=9;align=left;fontSize=10;" vertex="1" parent="1">
          <mxGeometry x="628" y="729" width="115" height="30" as="geometry" />
        </mxCell>
        <mxCell id="n3yEZyMTPkoygYLhiBQ4-80" value="critical" style="shape=umlFrame;whiteSpace=wrap;html=1;pointerEvents=0;width=60;height=15;" vertex="1" parent="1">
          <mxGeometry x="80" y="380" width="690" height="740" as="geometry" />
        </mxCell>
        <mxCell id="n3yEZyMTPkoygYLhiBQ4-152" value="" style="endArrow=none;html=1;rounded=0;" edge="1" parent="1">
          <mxGeometry width="50" height="50" relative="1" as="geometry">
            <mxPoint x="240" y="160" as="sourcePoint" />
            <mxPoint x="240" y="40" as="targetPoint" />
          </mxGeometry>
        </mxCell>
        <mxCell id="n3yEZyMTPkoygYLhiBQ4-153" value="Device" style="text;html=1;strokeColor=none;fillColor=none;align=center;verticalAlign=middle;whiteSpace=wrap;rounded=0;fontStyle=1;fontSize=13;" vertex="1" parent="1">
          <mxGeometry x="93" y="39" width="60" height="13" as="geometry" />
        </mxCell>
        <mxCell id="n3yEZyMTPkoygYLhiBQ4-154" value="AWS cloud" style="text;html=1;strokeColor=none;fillColor=none;align=center;verticalAlign=middle;whiteSpace=wrap;rounded=0;fontStyle=1;fontSize=13;" vertex="1" parent="1">
          <mxGeometry x="470" y="39" width="85" height="13" as="geometry" />
        </mxCell>
      </root>
    </mxGraphModel>
  </diagram>
</mxfile>
